<svg width="36" height="36" viewBox="0 0 36 36" fill="none" xmlns="http://www.w3.org/2000/svg">
<g clip-path="url(#clip0_7492_2563)">
<path d="M18 0C14.4399 0 10.9598 1.05568 7.99974 3.03355C5.03966 5.01141 2.73255 7.82263 1.37018 11.1117C0.00779903 14.4008 -0.348661 18.02 0.345873 21.5116C1.04041 25.0033 2.75474 28.2106 5.27209 30.7279C7.78943 33.2453 10.9967 34.9596 14.4884 35.6541C17.98 36.3487 21.5992 35.9922 24.8883 34.6298C28.1774 33.2674 30.9886 30.9603 32.9665 28.0003C34.9443 25.0402 36 21.5601 36 18C35.9948 13.2277 34.0967 8.65238 30.7221 5.27786C27.3476 1.90335 22.7723 0.00524087 18 0ZM18 32.4C14.2821 32.3954 10.7101 30.9531 8.03142 28.3748C5.35279 25.7964 3.7752 22.282 3.62881 18.567C5.55495 20.165 7.89669 21.1809 10.3796 21.4955C12.8624 21.8102 15.3835 21.4107 17.6474 20.3437C19.9113 19.2767 21.8242 17.5866 23.1619 15.4713C24.4995 13.356 25.2065 10.9033 25.2 8.4006C25.1988 7.36461 25.0737 6.33249 24.8274 5.3262C27.6481 6.84767 29.8806 9.26662 31.1714 12.2C32.4622 15.1334 32.7376 18.4136 31.954 21.5211C31.1703 24.6287 29.3724 27.386 26.8449 29.3565C24.3174 31.327 21.2048 32.398 18 32.4Z" fill="url(#paint0_linear_7492_2563)"/>
<path d="M19.8 7.92234C19.8 6.53058 18.6718 5.40234 17.28 5.40234C15.8883 5.40234 14.76 6.53058 14.76 7.92234V8.06077L18.4127 11.7158C18.5651 11.8683 18.7536 11.954 18.9692 11.954C19.418 11.954 19.8 11.5902 19.8 11.1415V7.92234Z" fill="url(#paint1_linear_7492_2563)"/>
<path d="M9.06404 10.8277L9.72853 11.4922C10.0231 11.7856 10.4217 11.9508 10.8375 11.9515H16.0275C16.6919 11.9515 17.0242 11.9515 17.1035 11.754C17.1829 11.5564 16.9431 11.3265 16.4635 10.8667L12.6271 7.18878C11.627 6.22995 10.0438 6.24663 9.06404 7.22634C8.06955 8.22083 8.06955 9.83322 9.06404 10.8277Z" fill="url(#paint2_linear_7492_2563)"/>
<path fill-rule="evenodd" clip-rule="evenodd" d="M9.72001 12.8984H17.28C18.6718 12.8984 19.8 14.0266 19.8 15.4184C19.8 16.8102 18.6718 17.9384 17.28 17.9384H9.72001C8.32825 17.9384 7.20001 16.8102 7.20001 15.4184C7.20001 14.0266 8.32825 12.8984 9.72001 12.8984ZM17.91 15.4184C17.91 15.0705 17.6279 14.7884 17.28 14.7884C16.9321 14.7884 16.65 15.0705 16.65 15.4184C16.65 15.7663 16.9321 16.0484 17.28 16.0484C17.6279 16.0484 17.91 15.7663 17.91 15.4184Z" fill="url(#paint3_linear_7492_2563)"/>
</g>
<defs>
<linearGradient id="paint0_linear_7492_2563" x1="18" y1="0" x2="18" y2="36" gradientUnits="userSpaceOnUse">
<stop stop-color="#BB96F6"/>
<stop offset="1" stop-color="#7D3DE3"/>
</linearGradient>
<linearGradient id="paint1_linear_7492_2563" x1="18.5" y1="21.0015" x2="13.4894" y2="4.32003" gradientUnits="userSpaceOnUse">
<stop offset="0.0553006" stop-color="#FB07F9"/>
<stop offset="0.294772" stop-color="#7F00E0"/>
<stop offset="0.630335" stop-color="#6808E7"/>
<stop offset="0.900739" stop-color="#531071"/>
</linearGradient>
<linearGradient id="paint2_linear_7492_2563" x1="18.5" y1="20.999" x2="13.4894" y2="4.3176" gradientUnits="userSpaceOnUse">
<stop offset="0.0553006" stop-color="#FB07F9"/>
<stop offset="0.294772" stop-color="#7F00E0"/>
<stop offset="0.630335" stop-color="#6808E7"/>
<stop offset="0.900739" stop-color="#531071"/>
</linearGradient>
<linearGradient id="paint3_linear_7492_2563" x1="18.5" y1="21.0009" x2="13.4894" y2="4.3195" gradientUnits="userSpaceOnUse">
<stop offset="0.0553006" stop-color="#FB07F9"/>
<stop offset="0.294772" stop-color="#7F00E0"/>
<stop offset="0.630335" stop-color="#6808E7"/>
<stop offset="0.900739" stop-color="#531071"/>
</linearGradient>
<clipPath id="clip0_7492_2563">
<rect width="36" height="36" fill="white"/>
</clipPath>
</defs>
</svg>
