<svg width="100" height="100" viewBox="0 0 100 100" fill="none" xmlns="http://www.w3.org/2000/svg">
<path d="M50 100C77.6142 100 100 77.6142 100 50C100 22.3858 77.6142 0 50 0C22.3858 0 0 22.3858 0 50C0 77.6142 22.3858 100 50 100Z" fill="#7D2AE7"/>
<path d="M50 100C77.6142 100 100 77.6142 100 50C100 22.3858 77.6142 0 50 0C22.3858 0 0 22.3858 0 50C0 77.6142 22.3858 100 50 100Z" fill="url(#paint0_radial_7229_9977)"/>
<path d="M50 100C77.6142 100 100 77.6142 100 50C100 22.3858 77.6142 0 50 0C22.3858 0 0 22.3858 0 50C0 77.6142 22.3858 100 50 100Z" fill="url(#paint1_radial_7229_9977)"/>
<path d="M50 100C77.6142 100 100 77.6142 100 50C100 22.3858 77.6142 0 50 0C22.3858 0 0 22.3858 0 50C0 77.6142 22.3858 100 50 100Z" fill="url(#paint2_radial_7229_9977)"/>
<path d="M50 100C77.6142 100 100 77.6142 100 50C100 22.3858 77.6142 0 50 0C22.3858 0 0 22.3858 0 50C0 77.6142 22.3858 100 50 100Z" fill="url(#paint3_radial_7229_9977)"/>
<path d="M71.5863 60.255C71.1736 60.255 70.8105 60.6034 70.4326 61.3644C66.1652 70.0176 58.7947 76.1402 50.2655 76.1402C40.4034 76.1402 34.2961 67.2376 34.2961 54.9386C34.2961 34.1053 45.9039 22.0598 56.0994 22.0598C60.8636 22.0598 63.7731 25.0538 63.7731 29.8183C63.7731 35.473 60.5605 38.4669 60.5605 40.4612C60.5605 41.3564 61.1173 41.8985 62.2215 41.8985C66.6578 41.8985 71.8647 36.8008 71.8647 29.5994C71.8647 22.6168 65.7873 17.4844 55.5921 17.4844C38.7423 17.4844 23.7676 33.1056 23.7676 54.7197C23.7676 71.4502 33.3214 82.506 48.0624 82.506C63.7084 82.506 72.7552 66.9392 72.7552 61.8865C72.7552 60.7676 72.1831 60.255 71.5863 60.255Z" fill="white"/>
<defs>
<radialGradient id="paint0_radial_7229_9977" cx="0" cy="0" r="1" gradientUnits="userSpaceOnUse" gradientTransform="translate(19.3162 88.6322) rotate(-49.416) scale(77.3416)">
<stop stop-color="#6420FF"/>
<stop offset="1" stop-color="#6420FF" stop-opacity="0"/>
</radialGradient>
<radialGradient id="paint1_radial_7229_9977" cx="0" cy="0" r="1" gradientUnits="userSpaceOnUse" gradientTransform="translate(26.4735 11.3682) rotate(54.703) scale(87.2168)">
<stop stop-color="#00C4CC"/>
<stop offset="1" stop-color="#00C4CC" stop-opacity="0"/>
</radialGradient>
<radialGradient id="paint2_radial_7229_9977" cx="0" cy="0" r="1" gradientUnits="userSpaceOnUse" gradientTransform="translate(19.3158 88.6316) rotate(-45.1954) scale(76.4053 35.1398)">
<stop stop-color="#6420FF"/>
<stop offset="1" stop-color="#6420FF" stop-opacity="0"/>
</radialGradient>
<radialGradient id="paint3_radial_7229_9977" cx="0" cy="0" r="1" gradientUnits="userSpaceOnUse" gradientTransform="translate(40.8947 13.4737) rotate(66.5198) scale(78.7295 131.889)">
<stop stop-color="#00C4CC" stop-opacity="0.725916"/>
<stop offset="0.0001" stop-color="#00C4CC"/>
<stop offset="1" stop-color="#00C4CC" stop-opacity="0"/>
</radialGradient>
</defs>
</svg>
