<svg width="100" height="100" viewBox="0 0 100 100" fill="none" xmlns="http://www.w3.org/2000/svg">
<path d="M94.1749 0L86.142 89.9895L50.0335 100L14.0245 90.0036L6 0H94.1749Z" fill="#264DE4"/>
<path d="M79.2653 84.2596L86.13 7.35938H50.0879V92.3487L79.2653 84.2596Z" fill="#2965F1"/>
<path d="M24.3955 40.7422L25.3849 51.7806H50.0871V40.7422H24.3955Z" fill="#EBEBEB"/>
<path d="M50.0877 18.3984H50.0496H22.4082L23.4117 29.4371H50.0877V18.3984Z" fill="#EBEBEB"/>
<path d="M50.0879 80.8921V69.4073L50.0395 69.4202L37.7458 66.1007L36.9599 57.2969H30.9861H25.8789L27.4254 74.629L50.0371 80.9062L50.0879 80.8921Z" fill="#EBEBEB"/>
<path d="M63.6416 51.7793L62.3603 66.0954L50.0488 69.4184V80.9027L72.6785 74.6309L72.8445 72.7659L75.4385 43.705L75.7078 40.7408L77.7006 18.3984H50.0488V29.4371H65.6033L64.5989 40.7408H50.0488V51.7793H63.6416Z" fill="white"/>
</svg>
