<svg width="100" height="100" viewBox="0 0 100 100" fill="none" xmlns="http://www.w3.org/2000/svg">
<path d="M33.3337 100.001C42.5337 100.001 50.0003 92.5346 50.0003 83.3346V66.668H33.3337C24.1337 66.668 16.667 74.1346 16.667 83.3346C16.667 92.5346 24.1337 100.001 33.3337 100.001Z" fill="#0ACF83"/>
<path d="M16.667 49.9987C16.667 40.7987 24.1337 33.332 33.3337 33.332H50.0003V66.6653H33.3337C24.1337 66.6653 16.667 59.1987 16.667 49.9987Z" fill="#A259FF"/>
<path d="M16.667 16.6667C16.667 7.46666 24.1337 0 33.3337 0H50.0003V33.3333H33.3337C24.1337 33.3333 16.667 25.8667 16.667 16.6667Z" fill="#F24E1E"/>
<path d="M50 0H66.6667C75.8667 0 83.3334 7.46666 83.3334 16.6667C83.3334 25.8667 75.8667 33.3333 66.6667 33.3333H50V0Z" fill="#FF7262"/>
<path d="M83.3334 49.9987C83.3334 59.1987 75.8667 66.6653 66.6667 66.6653C57.4667 66.6653 50 59.1987 50 49.9987C50 40.7987 57.4667 33.332 66.6667 33.332C75.8667 33.332 83.3334 40.7987 83.3334 49.9987Z" fill="#1ABCFE"/>
</svg>
