<svg width="100" height="100" viewBox="0 0 100 100" fill="none" xmlns="http://www.w3.org/2000/svg">
<path d="M50.0002 1C22.3894 1 0 23.3855 0 51.0002C0 73.092 14.3266 91.834 34.1933 98.4456C36.692 98.9083 37.6096 97.3609 37.6096 96.0402C37.6096 94.848 37.563 90.909 37.5418 86.7311C23.6313 89.7557 20.6961 80.8317 20.6961 80.8317C18.4217 75.0523 15.1446 73.5159 15.1446 73.5159C10.6083 70.4124 15.4865 70.476 15.4865 70.476C20.5075 70.8289 23.1513 75.6287 23.1513 75.6287C27.6108 83.2728 34.8482 81.0627 37.7014 79.7854C38.15 76.5534 39.4461 74.348 40.8758 73.0994C29.7703 71.8347 18.0954 67.5474 18.0954 48.3889C18.0954 42.9303 20.0487 38.4697 23.2474 34.9682C22.7282 33.7086 21.0169 28.6233 23.7317 21.7361C23.7317 21.7361 27.9304 20.3923 37.4853 26.8614C41.4734 25.7532 45.7509 25.198 50.0002 25.1791C54.2495 25.198 58.5301 25.7532 62.526 26.8614C72.0696 20.3923 76.2624 21.7361 76.2624 21.7361C78.9839 28.6233 77.2718 33.7086 76.7526 34.9682C79.9584 38.4697 81.8983 42.9299 81.8983 48.3889C81.8983 67.5929 70.2014 71.8218 59.0677 73.0594C60.861 74.6111 62.459 77.6541 62.459 82.3187C62.459 89.0086 62.4009 94.3932 62.4009 96.0402C62.4009 97.3707 63.3009 98.9299 65.8357 98.4389C85.6915 91.8199 100 73.0845 100 51.0002C100 23.3855 77.6137 1 50.0002 1Z" fill="white"/>
<path d="M18.7269 72.2268C18.6171 72.475 18.2257 72.5495 17.8701 72.3793C17.5073 72.2162 17.3034 71.8774 17.421 71.628C17.5289 71.3723 17.9202 71.3009 18.2822 71.4727C18.6457 71.6354 18.8528 71.9774 18.7269 72.2268ZM21.1864 74.4212C20.948 74.6424 20.4817 74.5396 20.1653 74.1902C19.8382 73.8416 19.777 73.3758 20.019 73.1511C20.2649 72.9303 20.717 73.0334 21.0448 73.3824C21.3719 73.735 21.4354 74.1981 21.186 74.4216L21.1864 74.4212ZM22.8738 77.229C22.5672 77.4419 22.066 77.2423 21.7566 76.7976C21.4503 76.3533 21.4503 75.82 21.7633 75.6063C22.0738 75.3925 22.5672 75.5847 22.8809 76.0259C23.1867 76.478 23.1867 77.0113 22.8734 77.2293L22.8738 77.229ZM25.727 80.481C25.4529 80.7829 24.8694 80.7022 24.442 80.2896C24.0051 79.8865 23.8832 79.3144 24.1581 79.012C24.4353 78.7093 25.0224 78.7944 25.4529 79.2034C25.887 79.6057 26.0196 80.1822 25.7274 80.481H25.727ZM29.4148 81.579C29.2944 81.9704 28.732 82.1484 28.1658 81.9821C27.6003 81.8108 27.2301 81.3519 27.3442 80.9563C27.4619 80.5622 28.0266 80.3767 28.5971 80.5547C29.1618 80.7253 29.5328 81.1806 29.4152 81.579H29.4148ZM33.6123 82.0445C33.6264 82.457 33.146 82.799 32.5515 82.8064C31.9535 82.8194 31.47 82.4856 31.4637 82.0802C31.4637 81.6637 31.9331 81.3249 32.5307 81.3151C33.1252 81.3033 33.6123 81.6347 33.6123 82.0445ZM37.7353 81.8864C37.8066 82.2888 37.3933 82.7021 36.8031 82.8119C36.2228 82.9178 35.6855 82.6695 35.6114 82.2707C35.5393 81.8582 35.9604 81.4453 36.5396 81.3382C37.131 81.2355 37.66 81.4774 37.7353 81.8864Z" fill="white"/>
</svg>
