<svg width="101" height="100" viewBox="0 0 101 100" fill="none" xmlns="http://www.w3.org/2000/svg">
<path d="M50.3065 58.8161C55.1755 58.8161 59.1227 54.8689 59.1227 49.9998C59.1227 45.1308 55.1755 41.1836 50.3065 41.1836C45.4374 41.1836 41.4902 45.1308 41.4902 49.9998C41.4902 54.8689 45.4374 58.8161 50.3065 58.8161Z" fill="#61DAFB"/>
<path d="M50.3066 68.0626C76.4333 68.0626 97.6132 59.9757 97.6132 50C97.6132 40.0244 76.4333 31.9375 50.3066 31.9375C24.1799 31.9375 3 40.0244 3 50C3 59.9757 24.1799 68.0626 50.3066 68.0626Z" stroke="#61DAFB" stroke-width="5"/>
<path d="M34.663 59.0313C47.7264 81.6577 65.3198 95.9566 73.9589 90.9687C82.5981 85.9809 79.0116 63.5951 65.9482 40.9687C52.8849 18.3423 35.2915 4.04343 26.6523 9.03126C18.0131 14.0191 21.5997 36.4049 34.663 59.0313Z" stroke="#61DAFB" stroke-width="5"/>
<path d="M34.663 40.9687C21.5997 63.5951 18.0132 85.9809 26.6523 90.9687C35.2915 95.9565 52.8849 81.6576 65.9483 59.0312C79.0116 36.4048 82.5981 14.0191 73.959 9.03124C65.3198 4.04341 47.7264 18.3423 34.663 40.9687Z" stroke="#61DAFB" stroke-width="5"/>
</svg>
