<svg width="100" height="100" viewBox="0 0 100 100" fill="none" xmlns="http://www.w3.org/2000/svg">
<path d="M7.10743 49.997C7.10743 66.9758 16.9741 81.6474 31.2817 88.6012L10.821 32.5407C8.36825 38.0332 7.10279 43.9817 7.10743 49.997ZM78.9568 47.8325C78.9568 42.5315 77.0526 38.8603 75.4195 36.0029C73.2452 32.4697 71.208 29.4776 71.208 25.9444C71.208 22.0014 74.1977 18.3311 78.4099 18.3311C78.6001 18.3311 78.7805 18.3548 78.9666 18.3654C71.3345 11.3741 61.1675 7.10547 50.0006 7.10547C35.0157 7.10547 21.832 14.7938 14.1624 26.439C15.1688 26.4692 16.118 26.4896 16.9227 26.4896C21.4092 26.4896 28.3541 25.9452 28.3541 25.9452C30.6663 25.8089 30.9389 29.205 28.6299 29.4784C28.6299 29.4784 26.3055 29.7518 23.7198 29.8873L39.3397 76.348L48.7274 48.1957L42.0437 29.8865C39.734 29.751 37.5458 29.4776 37.5458 29.4776C35.2344 29.3421 35.5054 25.8081 37.8168 25.9444C37.8168 25.9444 44.9003 26.4888 49.115 26.4888C53.6007 26.4888 60.5464 25.9444 60.5464 25.9444C62.8602 25.8081 63.132 29.2042 60.8214 29.4776C60.8214 29.4776 58.4929 29.751 55.9121 29.8865L71.4129 75.9954L75.6905 61.6985C77.5456 55.7657 78.9568 51.5045 78.9568 47.8325Z" fill="white"/>
<path d="M50.7532 53.7489L37.8838 91.1443C41.8183 92.3038 45.8989 92.8926 50.0007 92.8925C54.9957 92.8925 59.7858 92.0282 64.2446 90.4611C64.125 90.2739 64.0228 90.0761 63.9393 89.8702L50.7532 53.7489ZM87.6378 29.418C87.8222 30.7842 87.9267 32.2517 87.9267 33.8286C87.9267 38.1812 87.1138 43.0742 84.6653 49.1922L71.5632 87.0732C84.3151 79.6371 92.8923 65.8217 92.8923 49.9969C92.9037 42.804 91.0962 35.7249 87.6378 29.418Z" fill="white"/>
<path d="M50.0005 0C22.4309 0 0 22.4292 0 49.9987C0 77.5715 22.4301 100.001 50.0005 100.001C77.5692 100.001 100.003 77.5723 100.003 49.9987C100.003 22.4292 77.5692 0 50.0005 0ZM50.0005 97.7081C23.6952 97.7081 2.29263 76.3056 2.29263 49.9987C2.29263 23.6943 23.6944 2.29345 50.0005 2.29345C76.305 2.29345 97.7059 23.6943 97.7059 49.9987C97.7059 76.3056 76.3041 97.7081 50.0005 97.7081Z" fill="white"/>
</svg>
